solid Soldering fan 03
facet normal 1.0 5.107025913275722e-16 -8.881784197001249e-16
  outer loop
    vertex -180.00000000000009 -0.4999999999999596 -0.49999999999999345
    vertex -180.0000000000002 2.5000000000000266 8.500000000000007
    vertex -180.00000000000003 -0.49999999999995676 126.50000000000004
  endloop
endfacet
facet normal 1.0 5.107025913275722e-16 -8.881784197001249e-16
  outer loop
    vertex -180.0000000000002 2.5000000000000266 8.500000000000007
    vertex -180.00000000000009 -0.4999999999999596 -0.49999999999999345
    vertex -180.0000000000002 126.50000000000001 -0.49999999999999484
  endloop
endfacet
facet normal 1.0 5.107025913275722e-16 -8.881784197001249e-16
  outer loop
    vertex -180.0000000000002 2.5000000000000266 8.500000000000007
    vertex -180.0000000000002 126.50000000000001 -0.49999999999999484
    vertex -180.0000000000004 123.50000000000003 8.500000000000002
  endloop
endfacet
facet normal 1.0 5.107025913275722e-16 -8.881784197001249e-16
  outer loop
    vertex -180.0000000000004 123.50000000000003 8.500000000000002
    vertex -180.0000000000002 126.50000000000001 -0.49999999999999484
    vertex -180.0000000000001 123.50000000000003 117.50000000000003
  endloop
endfacet
facet normal 1.0 5.107025913275722e-16 -8.881784197001249e-16
  outer loop
    vertex -180.00000000000003 -0.49999999999995676 126.50000000000004
    vertex -180.0000000000002 2.5000000000000266 117.50000000000001
    vertex -180.00000000000003 126.50000000000001 126.50000000000004
  endloop
endfacet
facet normal 1.0 5.107025913275722e-16 -8.881784197001249e-16
  outer loop
    vertex -180.0000000000002 2.5000000000000266 117.50000000000001
    vertex -180.00000000000003 -0.49999999999995676 126.50000000000004
    vertex -180.0000000000002 2.5000000000000266 8.500000000000007
  endloop
endfacet
facet normal 1.0 5.107025913275722e-16 -8.881784197001249e-16
  outer loop
    vertex -180.00000000000003 126.50000000000001 126.50000000000004
    vertex -180.0000000000002 2.5000000000000266 117.50000000000001
    vertex -180.0000000000001 123.50000000000003 117.50000000000003
  endloop
endfacet
facet normal 1.0 5.107025913275722e-16 -8.881784197001249e-16
  outer loop
    vertex -180.00000000000003 126.50000000000001 126.50000000000004
    vertex -180.0000000000001 123.50000000000003 117.50000000000003
    vertex -180.0000000000002 126.50000000000001 -0.49999999999999484
  endloop
endfacet
facet normal 0.24253562503631854 3.6533686495237426e-16 -0.9701425001453357
  outer loop
    vertex -180.0000000000002 126.50000000000001 -0.49999999999999484
    vertex -182.0000000000001 -0.9999999999999615 -0.9999999999999883
    vertex -182.0000000000004 127.0 -0.9999999999999911
  endloop
endfacet
facet normal 0.24253562503631854 3.6533686495237426e-16 -0.9701425001453357
  outer loop
    vertex -182.0000000000001 -0.9999999999999615 -0.9999999999999883
    vertex -180.0000000000002 126.50000000000001 -0.49999999999999484
    vertex -180.00000000000009 -0.4999999999999596 -0.49999999999999345
  endloop
endfacet
facet normal 0.242535625036322 -0.9701425001453347 5.4099243256203045e-17
  outer loop
    vertex -180.00000000000009 -0.4999999999999596 -0.49999999999999345
    vertex -182.0000000000002 -0.9999999999999615 127.00000000000004
    vertex -182.0000000000001 -0.9999999999999615 -0.9999999999999883
  endloop
endfacet
facet normal 0.242535625036322 -0.9701425001453347 5.4099243256203045e-17
  outer loop
    vertex -182.0000000000002 -0.9999999999999615 127.00000000000004
    vertex -180.00000000000009 -0.4999999999999596 -0.49999999999999345
    vertex -180.00000000000003 -0.49999999999995676 126.50000000000004
  endloop
endfacet
facet normal 0.2425356250363098 3.76691027117244e-17 0.9701425001453378
  outer loop
    vertex -182.0000000000002 -0.9999999999999615 127.00000000000004
    vertex -180.00000000000003 126.50000000000001 126.50000000000004
    vertex -182.00000000000026 127.0 127.00000000000004
  endloop
endfacet
facet normal 0.2425356250363098 3.76691027117244e-17 0.9701425001453378
  outer loop
    vertex -180.00000000000003 126.50000000000001 126.50000000000004
    vertex -182.0000000000002 -0.9999999999999615 127.00000000000004
    vertex -180.00000000000003 -0.49999999999995676 126.50000000000004
  endloop
endfacet
facet normal 0.24253562503629952 0.9701425001453404 -3.002841946664989e-16
  outer loop
    vertex -182.00000000000026 127.0 127.00000000000004
    vertex -180.0000000000002 126.50000000000001 -0.49999999999999484
    vertex -182.0000000000004 127.0 -0.9999999999999911
  endloop
endfacet
facet normal 0.24253562503629952 0.9701425001453404 -3.002841946664989e-16
  outer loop
    vertex -180.0000000000002 126.50000000000001 -0.49999999999999484
    vertex -182.00000000000026 127.0 127.00000000000004
    vertex -180.00000000000003 126.50000000000001 126.50000000000004
  endloop
endfacet
facet normal -1.0 -1.2117043479698e-15 1.7624790515924366e-16
  outer loop
    vertex -182.0000000000002 -0.9999999999999615 127.00000000000004
    vertex -182.0000000000002 2.5000000000000266 117.50000000000001
    vertex -182.0000000000001 -0.9999999999999615 -0.9999999999999883
  endloop
endfacet
facet normal -1.0 -1.2117043479698e-15 1.7624790515924366e-16
  outer loop
    vertex -182.0000000000002 2.5000000000000266 117.50000000000001
    vertex -182.0000000000002 -0.9999999999999615 127.00000000000004
    vertex -182.00000000000026 127.0 127.00000000000004
  endloop
endfacet
facet normal -1.0 -1.2117043479698e-15 1.7624790515924366e-16
  outer loop
    vertex -182.0000000000002 2.5000000000000266 117.50000000000001
    vertex -182.00000000000026 127.0 127.00000000000004
    vertex -182.0000000000001 123.50000000000003 117.50000000000003
  endloop
endfacet
facet normal -1.0 -1.2117043479698e-15 1.7624790515924366e-16
  outer loop
    vertex -182.0000000000001 123.50000000000003 117.50000000000003
    vertex -182.00000000000026 127.0 127.00000000000004
    vertex -182.0000000000004 123.50000000000003 8.500000000000004
  endloop
endfacet
facet normal -1.0 -1.2117043479698e-15 1.7624790515924366e-16
  outer loop
    vertex -182.0000000000001 -0.9999999999999615 -0.9999999999999883
    vertex -182.0000000000002 2.5000000000000266 8.500000000000012
    vertex -182.0000000000004 127.0 -0.9999999999999911
  endloop
endfacet
facet normal -1.0 -1.2117043479698e-15 1.7624790515924366e-16
  outer loop
    vertex -182.0000000000002 2.5000000000000266 8.500000000000012
    vertex -182.0000000000001 -0.9999999999999615 -0.9999999999999883
    vertex -182.0000000000002 2.5000000000000266 117.50000000000001
  endloop
endfacet
facet normal -1.0 -1.2117043479698e-15 1.7624790515924366e-16
  outer loop
    vertex -182.0000000000004 127.0 -0.9999999999999911
    vertex -182.0000000000002 2.5000000000000266 8.500000000000012
    vertex -182.0000000000004 123.50000000000003 8.500000000000004
  endloop
endfacet
facet normal -1.0 -1.2117043479698e-15 1.7624790515924366e-16
  outer loop
    vertex -182.0000000000004 127.0 -0.9999999999999911
    vertex -182.0000000000004 123.50000000000003 8.500000000000004
    vertex -182.00000000000026 127.0 127.00000000000004
  endloop
endfacet
facet normal 0.0 1.0 0.0
  outer loop
    vertex -182.0000000000002 2.5000000000000266 8.500000000000012
    vertex -180.0000000000002 2.5000000000000266 117.50000000000001
    vertex -180.0000000000002 2.5000000000000266 8.500000000000007
  endloop
endfacet
facet normal 0.0 1.0 0.0
  outer loop
    vertex -180.0000000000002 2.5000000000000266 117.50000000000001
    vertex -182.0000000000002 2.5000000000000266 8.500000000000012
    vertex -182.0000000000002 2.5000000000000266 117.50000000000001
  endloop
endfacet
facet normal 2.1149748619109272e-15 5.826377030057951e-17 1.0
  outer loop
    vertex -182.0000000000002 2.5000000000000266 8.500000000000012
    vertex -180.0000000000004 123.50000000000003 8.500000000000002
    vertex -182.0000000000004 123.50000000000003 8.500000000000004
  endloop
endfacet
facet normal 2.1149748619109272e-15 5.826377030057951e-17 1.0
  outer loop
    vertex -180.0000000000004 123.50000000000003 8.500000000000002
    vertex -182.0000000000002 2.5000000000000266 8.500000000000012
    vertex -180.0000000000002 2.5000000000000266 8.500000000000007
  endloop
endfacet
facet normal 0.0 -1.0 0.0
  outer loop
    vertex -180.0000000000001 123.50000000000003 117.50000000000003
    vertex -182.0000000000004 123.50000000000003 8.500000000000004
    vertex -180.0000000000004 123.50000000000003 8.500000000000002
  endloop
endfacet
facet normal 0.0 -1.0 0.0
  outer loop
    vertex -182.0000000000004 123.50000000000003 8.500000000000004
    vertex -180.0000000000001 123.50000000000003 117.50000000000003
    vertex -182.0000000000001 123.50000000000003 117.50000000000003
  endloop
endfacet
facet normal 2.661690446190185e-31 1.8644406496184449e-16 -1.0
  outer loop
    vertex -182.0000000000001 123.50000000000003 117.50000000000003
    vertex -180.0000000000002 2.5000000000000266 117.50000000000001
    vertex -182.0000000000002 2.5000000000000266 117.50000000000001
  endloop
endfacet
facet normal 2.661690446190185e-31 1.8644406496184449e-16 -1.0
  outer loop
    vertex -180.0000000000002 2.5000000000000266 117.50000000000001
    vertex -182.0000000000001 123.50000000000003 117.50000000000003
    vertex -180.0000000000001 123.50000000000003 117.50000000000003
  endloop
endfacet
endsolid Soldering fan 03
