solid Soldering fan 03
facet normal 1.0 -1.2915877019303349e-16 -3.013704637837448e-16
  outer loop
    vertex -167.0000000000002 -2.4999999999999476 -2.499999999999987
    vertex -167.00000000000014 3.50000000000005 3.5000000000000084
    vertex -167.00000000000014 -2.4999999999999476 128.5
  endloop
endfacet
facet normal 1.0 -1.2915877019303349e-16 -3.013704637837448e-16
  outer loop
    vertex -167.00000000000014 3.50000000000005 3.5000000000000084
    vertex -167.0000000000002 -2.4999999999999476 -2.499999999999987
    vertex -167.00000000000017 128.5 -2.4999999999999756
  endloop
endfacet
facet normal 1.0 -1.2915877019303349e-16 -3.013704637837448e-16
  outer loop
    vertex -167.00000000000014 3.50000000000005 3.5000000000000084
    vertex -167.00000000000017 128.5 -2.4999999999999756
    vertex -167.00000000000037 122.50000000000004 3.5000000000000013
  endloop
endfacet
facet normal 1.0 -1.2915877019303349e-16 -3.013704637837448e-16
  outer loop
    vertex -167.00000000000037 122.50000000000004 3.5000000000000013
    vertex -167.00000000000017 128.5 -2.4999999999999756
    vertex -167.00000000000014 122.50000000000004 122.50000000000004
  endloop
endfacet
facet normal 1.0 -1.2915877019303349e-16 -3.013704637837448e-16
  outer loop
    vertex -167.00000000000014 122.50000000000004 122.50000000000004
    vertex -167.00000000000017 128.5 -2.4999999999999756
    vertex -167.00000000000014 128.5 128.50000000000003
  endloop
endfacet
facet normal 1.0 -1.2915877019303349e-16 -3.013704637837448e-16
  outer loop
    vertex -167.00000000000014 -2.4999999999999476 128.5
    vertex -167.00000000000014 3.50000000000005 122.50000000000003
    vertex -167.00000000000014 128.5 128.50000000000003
  endloop
endfacet
facet normal 1.0 -1.2915877019303349e-16 -3.013704637837448e-16
  outer loop
    vertex -167.00000000000014 3.50000000000005 122.50000000000003
    vertex -167.00000000000014 -2.4999999999999476 128.5
    vertex -167.00000000000014 3.50000000000005 3.5000000000000084
  endloop
endfacet
facet normal 1.0 -1.2915877019303349e-16 -3.013704637837448e-16
  outer loop
    vertex -167.00000000000014 128.5 128.50000000000003
    vertex -167.00000000000014 3.50000000000005 122.50000000000003
    vertex -167.00000000000014 122.50000000000004 122.50000000000004
  endloop
endfacet
facet normal 0.24253562503633525 5.73880715479637e-17 -0.9701425001453314
  outer loop
    vertex -169.00000000000017 129.0 -2.9999999999999747
    vertex -167.0000000000002 -2.4999999999999476 -2.499999999999987
    vertex -169.0000000000002 -2.999999999999944 -2.999999999999996
  endloop
endfacet
facet normal 0.24253562503633525 5.73880715479637e-17 -0.9701425001453314
  outer loop
    vertex -167.0000000000002 -2.4999999999999476 -2.499999999999987
    vertex -169.00000000000017 129.0 -2.9999999999999747
    vertex -167.00000000000017 128.5 -2.4999999999999756
  endloop
endfacet
facet normal 0.2425356250363319 -0.9701425001453323 -1.059858476728264e-16
  outer loop
    vertex -167.0000000000002 -2.4999999999999476 -2.499999999999987
    vertex -169.00000000000014 -2.9999999999999445 129.00000000000003
    vertex -169.0000000000002 -2.999999999999944 -2.999999999999996
  endloop
endfacet
facet normal 0.2425356250363319 -0.9701425001453323 -1.059858476728264e-16
  outer loop
    vertex -169.00000000000014 -2.9999999999999445 129.00000000000003
    vertex -167.0000000000002 -2.4999999999999476 -2.499999999999987
    vertex -167.00000000000014 -2.4999999999999476 128.5
  endloop
endfacet
facet normal 0.24253562503633816 0.9701425001453307 4.1314388488577245e-17
  outer loop
    vertex -169.00000000000014 129.0 129.00000000000003
    vertex -167.00000000000017 128.5 -2.4999999999999756
    vertex -169.00000000000017 129.0 -2.9999999999999747
  endloop
endfacet
facet normal 0.24253562503633816 0.9701425001453307 4.1314388488577245e-17
  outer loop
    vertex -167.00000000000017 128.5 -2.4999999999999756
    vertex -169.00000000000014 129.0 129.00000000000003
    vertex -167.00000000000014 128.5 128.50000000000003
  endloop
endfacet
facet normal 0.24253562503633816 -8.287992827495934e-17 0.9701425001453307
  outer loop
    vertex -167.00000000000014 -2.4999999999999476 128.5
    vertex -169.00000000000014 129.0 129.00000000000003
    vertex -169.00000000000014 -2.9999999999999445 129.00000000000003
  endloop
endfacet
facet normal 0.24253562503633816 -8.287992827495934e-17 0.9701425001453307
  outer loop
    vertex -169.00000000000014 129.0 129.00000000000003
    vertex -167.00000000000014 -2.4999999999999476 128.5
    vertex -167.00000000000014 128.5 128.50000000000003
  endloop
endfacet
facet normal -1.0 1.281802946612681e-16 2.9908735420962545e-16
  outer loop
    vertex -169.00000000000014 -2.9999999999999445 129.00000000000003
    vertex -169.00000000000014 3.5000000000000484 122.50000000000003
    vertex -169.0000000000002 -2.999999999999944 -2.999999999999996
  endloop
endfacet
facet normal -1.0 1.281802946612681e-16 2.9908735420962545e-16
  outer loop
    vertex -169.00000000000014 3.5000000000000484 122.50000000000003
    vertex -169.00000000000014 -2.9999999999999445 129.00000000000003
    vertex -169.00000000000014 129.0 129.00000000000003
  endloop
endfacet
facet normal -1.0 1.281802946612681e-16 2.9908735420962545e-16
  outer loop
    vertex -169.00000000000014 3.5000000000000484 122.50000000000003
    vertex -169.00000000000014 129.0 129.00000000000003
    vertex -169.00000000000014 122.50000000000004 122.50000000000004
  endloop
endfacet
facet normal -1.0 1.281802946612681e-16 2.9908735420962545e-16
  outer loop
    vertex -169.00000000000014 122.50000000000004 122.50000000000004
    vertex -169.00000000000014 129.0 129.00000000000003
    vertex -169.00000000000037 122.50000000000004 3.5000000000000027
  endloop
endfacet
facet normal -1.0 1.281802946612681e-16 2.9908735420962545e-16
  outer loop
    vertex -169.0000000000002 -2.999999999999944 -2.999999999999996
    vertex -169.00000000000014 3.5000000000000484 3.5000000000000098
    vertex -169.00000000000017 129.0 -2.9999999999999747
  endloop
endfacet
facet normal -1.0 1.281802946612681e-16 2.9908735420962545e-16
  outer loop
    vertex -169.00000000000014 3.5000000000000484 3.5000000000000098
    vertex -169.0000000000002 -2.999999999999944 -2.999999999999996
    vertex -169.00000000000014 3.5000000000000484 122.50000000000003
  endloop
endfacet
facet normal -1.0 1.281802946612681e-16 2.9908735420962545e-16
  outer loop
    vertex -169.00000000000017 129.0 -2.9999999999999747
    vertex -169.00000000000014 3.5000000000000484 3.5000000000000098
    vertex -169.00000000000037 122.50000000000004 3.5000000000000027
  endloop
endfacet
facet normal -1.0 1.281802946612681e-16 2.9908735420962545e-16
  outer loop
    vertex -169.00000000000017 129.0 -2.9999999999999747
    vertex -169.00000000000037 122.50000000000004 3.5000000000000027
    vertex -169.00000000000014 129.0 129.00000000000003
  endloop
endfacet
facet normal -8.530991039640699e-16 1.8957757865868223e-16 -1.0
  outer loop
    vertex -169.00000000000014 122.50000000000004 122.50000000000004
    vertex -167.00000000000014 3.50000000000005 122.50000000000003
    vertex -169.00000000000014 3.5000000000000484 122.50000000000003
  endloop
endfacet
facet normal -8.530991039640699e-16 1.8957757865868223e-16 -1.0
  outer loop
    vertex -167.00000000000014 3.50000000000005 122.50000000000003
    vertex -169.00000000000014 122.50000000000004 122.50000000000004
    vertex -167.00000000000014 122.50000000000004 122.50000000000004
  endloop
endfacet
facet normal -8.530991039640699e-16 1.0 -8.086423124269988e-32
  outer loop
    vertex -169.00000000000014 3.5000000000000484 3.5000000000000098
    vertex -167.00000000000014 3.50000000000005 122.50000000000003
    vertex -167.00000000000014 3.50000000000005 3.5000000000000084
  endloop
endfacet
facet normal -8.530991039640699e-16 1.0 -8.086423124269988e-32
  outer loop
    vertex -167.00000000000014 3.50000000000005 122.50000000000003
    vertex -169.00000000000014 3.5000000000000484 3.5000000000000098
    vertex -169.00000000000014 3.5000000000000484 122.50000000000003
  endloop
endfacet
facet normal 8.530991039640697e-16 5.924299333083971e-17 1.0
  outer loop
    vertex -169.00000000000014 3.5000000000000484 3.5000000000000098
    vertex -167.00000000000037 122.50000000000004 3.5000000000000013
    vertex -169.00000000000037 122.50000000000004 3.5000000000000027
  endloop
endfacet
facet normal 8.530991039640697e-16 5.924299333083971e-17 1.0
  outer loop
    vertex -167.00000000000037 122.50000000000004 3.5000000000000013
    vertex -169.00000000000014 3.5000000000000484 3.5000000000000098
    vertex -167.00000000000014 3.50000000000005 3.5000000000000084
  endloop
endfacet
facet normal 8.530991039640701e-16 -1.0 -1.5364203936112975e-30
  outer loop
    vertex -167.00000000000014 122.50000000000004 122.50000000000004
    vertex -169.00000000000037 122.50000000000004 3.5000000000000027
    vertex -167.00000000000037 122.50000000000004 3.5000000000000013
  endloop
endfacet
facet normal 8.530991039640701e-16 -1.0 -1.5364203936112975e-30
  outer loop
    vertex -169.00000000000037 122.50000000000004 3.5000000000000027
    vertex -167.00000000000014 122.50000000000004 122.50000000000004
    vertex -169.00000000000014 122.50000000000004 122.50000000000004
  endloop
endfacet
endsolid Soldering fan 03
