solid Soldering fan 01
facet normal -1.0 -5.856853463753326e-16 5.85685346375332e-16
  outer loop
    vertex 192.99999999999994 -1.9999999999999858 128.0000000000001
    vertex 192.99999999999994 -0.9999999999999858 127.00000000000013
    vertex 192.99999999999994 -1.9999999999999858 -1.9999999999999907
  endloop
endfacet
facet normal -1.0 -5.856853463753326e-16 5.85685346375332e-16
  outer loop
    vertex 192.99999999999994 -0.9999999999999858 127.00000000000013
    vertex 192.99999999999994 -1.9999999999999858 128.0000000000001
    vertex 192.99999999999994 127.99999999999999 128.0000000000001
  endloop
endfacet
facet normal -1.0 -5.856853463753326e-16 5.85685346375332e-16
  outer loop
    vertex 192.99999999999994 -0.9999999999999858 127.00000000000013
    vertex 192.99999999999994 127.99999999999999 128.0000000000001
    vertex 192.99999999999994 127.0 127.00000000000013
  endloop
endfacet
facet normal -1.0 -5.856853463753326e-16 5.85685346375332e-16
  outer loop
    vertex 192.99999999999994 127.0 127.00000000000013
    vertex 192.99999999999994 127.99999999999999 128.0000000000001
    vertex 192.99999999999977 127.0 -0.9999999999999821
  endloop
endfacet
facet normal -1.0 -5.856853463753326e-16 5.85685346375332e-16
  outer loop
    vertex 192.99999999999994 -1.9999999999999858 -1.9999999999999907
    vertex 192.99999999999994 -0.9999999999999858 -0.9999999999999906
    vertex 192.99999999999977 127.99999999999999 -1.9999999999999822
  endloop
endfacet
facet normal -1.0 -5.856853463753326e-16 5.85685346375332e-16
  outer loop
    vertex 192.99999999999994 -0.9999999999999858 -0.9999999999999906
    vertex 192.99999999999994 -1.9999999999999858 -1.9999999999999907
    vertex 192.99999999999994 -0.9999999999999858 127.00000000000013
  endloop
endfacet
facet normal -1.0 -5.856853463753326e-16 5.85685346375332e-16
  outer loop
    vertex 192.99999999999977 127.99999999999999 -1.9999999999999822
    vertex 192.99999999999994 -0.9999999999999858 -0.9999999999999906
    vertex 192.99999999999977 127.0 -0.9999999999999821
  endloop
endfacet
facet normal -1.0 -5.856853463753326e-16 5.85685346375332e-16
  outer loop
    vertex 192.99999999999977 127.99999999999999 -1.9999999999999822
    vertex 192.99999999999977 127.0 -0.9999999999999821
    vertex 192.99999999999994 127.99999999999999 128.0000000000001
  endloop
endfacet
facet normal 5.856853463753326e-16 -1.0 0.0
  outer loop
    vertex 215.99999999999991 -1.9999999999999725 128.0000000000001
    vertex 192.99999999999994 -1.9999999999999858 -1.9999999999999907
    vertex 215.99999999999991 -1.9999999999999725 -2.000000000000004
  endloop
endfacet
facet normal 5.856853463753326e-16 -1.0 0.0
  outer loop
    vertex 192.99999999999994 -1.9999999999999858 -1.9999999999999907
    vertex 215.99999999999991 -1.9999999999999725 128.0000000000001
    vertex 192.99999999999994 -1.9999999999999858 128.0000000000001
  endloop
endfacet
facet normal -5.85685346375332e-16 6.507614959725851e-17 -1.0
  outer loop
    vertex 215.99999999999977 128.0 -1.9999999999999956
    vertex 192.99999999999994 -1.9999999999999858 -1.9999999999999907
    vertex 192.99999999999977 127.99999999999999 -1.9999999999999822
  endloop
endfacet
facet normal -5.85685346375332e-16 6.507614959725851e-17 -1.0
  outer loop
    vertex 192.99999999999994 -1.9999999999999858 -1.9999999999999907
    vertex 215.99999999999977 128.0 -1.9999999999999956
    vertex 215.99999999999991 -1.9999999999999725 -2.000000000000004
  endloop
endfacet
facet normal -5.856853463753326e-16 1.0 6.860546499175859e-31
  outer loop
    vertex 192.99999999999977 127.99999999999999 -1.9999999999999822
    vertex 215.99999999999991 128.0 128.0000000000001
    vertex 215.99999999999977 128.0 -1.9999999999999956
  endloop
endfacet
facet normal -5.856853463753326e-16 1.0 6.860546499175859e-31
  outer loop
    vertex 215.99999999999991 128.0 128.0000000000001
    vertex 192.99999999999977 127.99999999999999 -1.9999999999999822
    vertex 192.99999999999994 127.99999999999999 128.0000000000001
  endloop
endfacet
facet normal 5.85685346375332e-16 -6.714205910828258e-17 1.0
  outer loop
    vertex 194.99999999999994 1.5509815654013436e-14 8.107403637325205e-15
    vertex 217.99999999999977 126.00000000000001 1.4099832412739487e-15
    vertex 194.99999999999977 126.0 1.6567303084968898e-14
  endloop
endfacet
facet normal 5.85685346375332e-16 -6.714205910828258e-17 1.0
  outer loop
    vertex 217.99999999999977 126.00000000000001 1.4099832412739487e-15
    vertex 194.99999999999994 1.5509815654013436e-14 8.107403637325205e-15
    vertex 217.99999999999991 3.03146396873899e-14 -7.049916206369744e-15
  endloop
endfacet
facet normal -5.85685346375332e-16 0.0 -1.0
  outer loop
    vertex 217.99999999999991 126.00000000000001 126.00000000000011
    vertex 194.99999999999994 1.5509815654013436e-14 126.00000000000013
    vertex 194.99999999999994 126.0 126.00000000000013
  endloop
endfacet
facet normal -5.85685346375332e-16 0.0 -1.0
  outer loop
    vertex 194.99999999999994 1.5509815654013436e-14 126.00000000000013
    vertex 217.99999999999991 126.00000000000001 126.00000000000011
    vertex 217.99999999999991 3.03146396873899e-14 126.00000000000011
  endloop
endfacet
facet normal 5.85685346375332e-16 0.0 1.0
  outer loop
    vertex 215.99999999999991 -1.9999999999999725 128.0000000000001
    vertex 192.99999999999994 127.99999999999999 128.0000000000001
    vertex 192.99999999999994 -1.9999999999999858 128.0000000000001
  endloop
endfacet
facet normal 5.85685346375332e-16 0.0 1.0
  outer loop
    vertex 192.99999999999994 127.99999999999999 128.0000000000001
    vertex 215.99999999999991 -1.9999999999999725 128.0000000000001
    vertex 215.99999999999991 128.0 128.0000000000001
  endloop
endfacet
facet normal 5.856853463753326e-16 -1.0 -7.078341626133822e-31
  outer loop
    vertex 217.99999999999991 126.00000000000001 126.00000000000011
    vertex 194.99999999999977 126.0 1.6567303084968898e-14
    vertex 217.99999999999977 126.00000000000001 1.4099832412739487e-15
  endloop
endfacet
facet normal 5.856853463753326e-16 -1.0 -7.078341626133822e-31
  outer loop
    vertex 194.99999999999977 126.0 1.6567303084968898e-14
    vertex 217.99999999999991 126.00000000000001 126.00000000000011
    vertex 194.99999999999994 126.0 126.00000000000013
  endloop
endfacet
facet normal -5.856853463753326e-16 1.0 0.0
  outer loop
    vertex 194.99999999999994 1.5509815654013436e-14 8.107403637325205e-15
    vertex 217.99999999999991 3.03146396873899e-14 126.00000000000011
    vertex 217.99999999999991 3.03146396873899e-14 -7.049916206369744e-15
  endloop
endfacet
facet normal -5.856853463753326e-16 1.0 0.0
  outer loop
    vertex 217.99999999999991 3.03146396873899e-14 126.00000000000011
    vertex 194.99999999999994 1.5509815654013436e-14 8.107403637325205e-15
    vertex 194.99999999999994 1.5509815654013436e-14 126.00000000000013
  endloop
endfacet
facet normal 1.0 5.287437154777308e-16 -5.287437154777304e-16
  outer loop
    vertex 217.99999999999991 -0.9999999999999698 -1.0000000000000067
    vertex 217.99999999999991 3.03146396873899e-14 -7.049916206369744e-15
    vertex 217.99999999999991 -0.9999999999999698 127.0000000000001
  endloop
endfacet
facet normal 1.0 5.287437154777308e-16 -5.287437154777304e-16
  outer loop
    vertex 217.99999999999991 3.03146396873899e-14 -7.049916206369744e-15
    vertex 217.99999999999991 -0.9999999999999698 -1.0000000000000067
    vertex 217.99999999999977 127.00000000000001 -0.9999999999999981
  endloop
endfacet
facet normal 1.0 5.287437154777308e-16 -5.287437154777304e-16
  outer loop
    vertex 217.99999999999991 3.03146396873899e-14 -7.049916206369744e-15
    vertex 217.99999999999977 127.00000000000001 -0.9999999999999981
    vertex 217.99999999999977 126.00000000000001 1.4099832412739487e-15
  endloop
endfacet
facet normal 1.0 5.287437154777308e-16 -5.287437154777304e-16
  outer loop
    vertex 217.99999999999977 126.00000000000001 1.4099832412739487e-15
    vertex 217.99999999999977 127.00000000000001 -0.9999999999999981
    vertex 217.99999999999991 126.00000000000001 126.00000000000011
  endloop
endfacet
facet normal 1.0 5.287437154777308e-16 -5.287437154777304e-16
  outer loop
    vertex 217.99999999999991 -0.9999999999999698 127.0000000000001
    vertex 217.99999999999991 3.03146396873899e-14 126.00000000000011
    vertex 217.99999999999991 127.00000000000001 127.0000000000001
  endloop
endfacet
facet normal 1.0 5.287437154777308e-16 -5.287437154777304e-16
  outer loop
    vertex 217.99999999999991 3.03146396873899e-14 126.00000000000011
    vertex 217.99999999999991 -0.9999999999999698 127.0000000000001
    vertex 217.99999999999991 3.03146396873899e-14 -7.049916206369744e-15
  endloop
endfacet
facet normal 1.0 5.287437154777308e-16 -5.287437154777304e-16
  outer loop
    vertex 217.99999999999991 127.00000000000001 127.0000000000001
    vertex 217.99999999999991 3.03146396873899e-14 126.00000000000011
    vertex 217.99999999999991 126.00000000000001 126.00000000000011
  endloop
endfacet
facet normal 1.0 5.287437154777308e-16 -5.287437154777304e-16
  outer loop
    vertex 217.99999999999991 127.00000000000001 127.0000000000001
    vertex 217.99999999999991 126.00000000000001 126.00000000000011
    vertex 217.99999999999977 127.00000000000001 -0.9999999999999981
  endloop
endfacet
facet normal 1.0 5.856853463753326e-16 -5.85685346375332e-16
  outer loop
    vertex 215.99999999999991 -1.9999999999999725 -2.000000000000004
    vertex 215.99999999999991 -0.9999999999999726 -1.0000000000000038
    vertex 215.99999999999991 -1.9999999999999725 128.0000000000001
  endloop
endfacet
facet normal 1.0 5.856853463753326e-16 -5.85685346375332e-16
  outer loop
    vertex 215.99999999999991 -0.9999999999999726 -1.0000000000000038
    vertex 215.99999999999991 -1.9999999999999725 -2.000000000000004
    vertex 215.99999999999977 128.0 -1.9999999999999956
  endloop
endfacet
facet normal 1.0 5.856853463753326e-16 -5.85685346375332e-16
  outer loop
    vertex 215.99999999999991 -0.9999999999999726 -1.0000000000000038
    vertex 215.99999999999977 128.0 -1.9999999999999956
    vertex 215.99999999999977 127.00000000000001 -0.9999999999999953
  endloop
endfacet
facet normal 1.0 5.856853463753326e-16 -5.85685346375332e-16
  outer loop
    vertex 215.99999999999977 127.00000000000001 -0.9999999999999953
    vertex 215.99999999999977 128.0 -1.9999999999999956
    vertex 215.99999999999991 127.00000000000001 127.0000000000001
  endloop
endfacet
facet normal 1.0 5.856853463753326e-16 -5.85685346375332e-16
  outer loop
    vertex 215.99999999999991 -1.9999999999999725 128.0000000000001
    vertex 215.99999999999991 -0.9999999999999726 127.0000000000001
    vertex 215.99999999999991 128.0 128.0000000000001
  endloop
endfacet
facet normal 1.0 5.856853463753326e-16 -5.85685346375332e-16
  outer loop
    vertex 215.99999999999991 -0.9999999999999726 127.0000000000001
    vertex 215.99999999999991 -1.9999999999999725 128.0000000000001
    vertex 215.99999999999991 -0.9999999999999726 -1.0000000000000038
  endloop
endfacet
facet normal 1.0 5.856853463753326e-16 -5.85685346375332e-16
  outer loop
    vertex 215.99999999999991 128.0 128.0000000000001
    vertex 215.99999999999991 -0.9999999999999726 127.0000000000001
    vertex 215.99999999999991 127.00000000000001 127.0000000000001
  endloop
endfacet
facet normal 1.0 5.856853463753326e-16 -5.85685346375332e-16
  outer loop
    vertex 215.99999999999991 128.0 128.0000000000001
    vertex 215.99999999999991 127.00000000000001 127.0000000000001
    vertex 215.99999999999977 128.0 -1.9999999999999956
  endloop
endfacet
facet normal -5.856853463753326e-16 1.0 6.193548922867095e-31
  outer loop
    vertex 215.99999999999977 127.00000000000001 -0.9999999999999953
    vertex 217.99999999999991 127.00000000000001 127.0000000000001
    vertex 217.99999999999977 127.00000000000001 -0.9999999999999981
  endloop
endfacet
facet normal -5.856853463753326e-16 1.0 6.193548922867095e-31
  outer loop
    vertex 217.99999999999991 127.00000000000001 127.0000000000001
    vertex 215.99999999999977 127.00000000000001 -0.9999999999999953
    vertex 215.99999999999991 127.00000000000001 127.0000000000001
  endloop
endfacet
facet normal -5.856853463753321e-16 6.609296443471574e-17 -1.0
  outer loop
    vertex 217.99999999999977 127.00000000000001 -0.9999999999999981
    vertex 215.99999999999991 -0.9999999999999726 -1.0000000000000038
    vertex 215.99999999999977 127.00000000000001 -0.9999999999999953
  endloop
endfacet
facet normal -5.856853463753321e-16 6.609296443471574e-17 -1.0
  outer loop
    vertex 215.99999999999991 -0.9999999999999726 -1.0000000000000038
    vertex 217.99999999999977 127.00000000000001 -0.9999999999999981
    vertex 217.99999999999991 -0.9999999999999698 -1.0000000000000067
  endloop
endfacet
facet normal 5.856853463753326e-16 -1.0 0.0
  outer loop
    vertex 217.99999999999991 -0.9999999999999698 127.0000000000001
    vertex 215.99999999999991 -0.9999999999999726 -1.0000000000000038
    vertex 217.99999999999991 -0.9999999999999698 -1.0000000000000067
  endloop
endfacet
facet normal 5.856853463753326e-16 -1.0 0.0
  outer loop
    vertex 215.99999999999991 -0.9999999999999726 -1.0000000000000038
    vertex 217.99999999999991 -0.9999999999999698 127.0000000000001
    vertex 215.99999999999991 -0.9999999999999726 127.0000000000001
  endloop
endfacet
facet normal 5.856853463753321e-16 0.0 1.0
  outer loop
    vertex 217.99999999999991 -0.9999999999999698 127.0000000000001
    vertex 215.99999999999991 127.00000000000001 127.0000000000001
    vertex 215.99999999999991 -0.9999999999999726 127.0000000000001
  endloop
endfacet
facet normal 5.856853463753321e-16 0.0 1.0
  outer loop
    vertex 215.99999999999991 127.00000000000001 127.0000000000001
    vertex 217.99999999999991 -0.9999999999999698 127.0000000000001
    vertex 217.99999999999991 127.00000000000001 127.0000000000001
  endloop
endfacet
facet normal -1.0 -6.168676680573526e-16 6.1686766805735205e-16
  outer loop
    vertex 194.99999999999994 -0.9999999999999846 127.00000000000013
    vertex 194.99999999999994 1.5509815654013436e-14 126.00000000000013
    vertex 194.99999999999994 -0.9999999999999846 -0.9999999999999918
  endloop
endfacet
facet normal -1.0 -6.168676680573526e-16 6.1686766805735205e-16
  outer loop
    vertex 194.99999999999994 1.5509815654013436e-14 126.00000000000013
    vertex 194.99999999999994 -0.9999999999999846 127.00000000000013
    vertex 194.99999999999994 127.0 127.00000000000013
  endloop
endfacet
facet normal -1.0 -6.168676680573526e-16 6.1686766805735205e-16
  outer loop
    vertex 194.99999999999994 1.5509815654013436e-14 126.00000000000013
    vertex 194.99999999999994 127.0 127.00000000000013
    vertex 194.99999999999994 126.0 126.00000000000013
  endloop
endfacet
facet normal -1.0 -6.168676680573526e-16 6.1686766805735205e-16
  outer loop
    vertex 194.99999999999994 126.0 126.00000000000013
    vertex 194.99999999999994 127.0 127.00000000000013
    vertex 194.99999999999977 126.0 1.6567303084968898e-14
  endloop
endfacet
facet normal -1.0 -6.168676680573526e-16 6.1686766805735205e-16
  outer loop
    vertex 194.99999999999994 -0.9999999999999846 -0.9999999999999918
    vertex 194.99999999999994 1.5509815654013436e-14 8.107403637325205e-15
    vertex 194.99999999999977 127.0 -0.9999999999999833
  endloop
endfacet
facet normal -1.0 -6.168676680573526e-16 6.1686766805735205e-16
  outer loop
    vertex 194.99999999999994 1.5509815654013436e-14 8.107403637325205e-15
    vertex 194.99999999999994 -0.9999999999999846 -0.9999999999999918
    vertex 194.99999999999994 1.5509815654013436e-14 126.00000000000013
  endloop
endfacet
facet normal -1.0 -6.168676680573526e-16 6.1686766805735205e-16
  outer loop
    vertex 194.99999999999977 127.0 -0.9999999999999833
    vertex 194.99999999999994 1.5509815654013436e-14 8.107403637325205e-15
    vertex 194.99999999999977 126.0 1.6567303084968898e-14
  endloop
endfacet
facet normal -1.0 -6.168676680573526e-16 6.1686766805735205e-16
  outer loop
    vertex 194.99999999999977 127.0 -0.9999999999999833
    vertex 194.99999999999977 126.0 1.6567303084968898e-14
    vertex 194.99999999999994 127.0 127.00000000000013
  endloop
endfacet
facet normal 6.168676680573526e-16 -1.0 -7.610514397890317e-31
  outer loop
    vertex 194.99999999999994 127.0 127.00000000000013
    vertex 192.99999999999977 127.0 -0.9999999999999821
    vertex 194.99999999999977 127.0 -0.9999999999999833
  endloop
endfacet
facet normal 6.168676680573526e-16 -1.0 -7.610514397890317e-31
  outer loop
    vertex 192.99999999999977 127.0 -0.9999999999999821
    vertex 194.99999999999994 127.0 127.00000000000013
    vertex 192.99999999999994 127.0 127.00000000000013
  endloop
endfacet
facet normal 6.168676680573521e-16 -6.60929644347156e-17 1.0
  outer loop
    vertex 192.99999999999994 -0.9999999999999858 -0.9999999999999906
    vertex 194.99999999999977 127.0 -0.9999999999999833
    vertex 192.99999999999977 127.0 -0.9999999999999821
  endloop
endfacet
facet normal 6.168676680573521e-16 -6.60929644347156e-17 1.0
  outer loop
    vertex 194.99999999999977 127.0 -0.9999999999999833
    vertex 192.99999999999994 -0.9999999999999858 -0.9999999999999906
    vertex 194.99999999999994 -0.9999999999999846 -0.9999999999999918
  endloop
endfacet
facet normal -6.168676680573526e-16 1.0 0.0
  outer loop
    vertex 192.99999999999994 -0.9999999999999858 -0.9999999999999906
    vertex 194.99999999999994 -0.9999999999999846 127.00000000000013
    vertex 194.99999999999994 -0.9999999999999846 -0.9999999999999918
  endloop
endfacet
facet normal -6.168676680573526e-16 1.0 0.0
  outer loop
    vertex 194.99999999999994 -0.9999999999999846 127.00000000000013
    vertex 192.99999999999994 -0.9999999999999858 -0.9999999999999906
    vertex 192.99999999999994 -0.9999999999999858 127.00000000000013
  endloop
endfacet
facet normal -6.1686766805735205e-16 0.0 -1.0
  outer loop
    vertex 194.99999999999994 127.0 127.00000000000013
    vertex 192.99999999999994 -0.9999999999999858 127.00000000000013
    vertex 192.99999999999994 127.0 127.00000000000013
  endloop
endfacet
facet normal -6.1686766805735205e-16 0.0 -1.0
  outer loop
    vertex 192.99999999999994 -0.9999999999999858 127.00000000000013
    vertex 194.99999999999994 127.0 127.00000000000013
    vertex 194.99999999999994 -0.9999999999999846 127.00000000000013
  endloop
endfacet
endsolid Soldering fan 01
