solid Soldering fan 04
facet normal 1.0 5.287437154777308e-16 -8.922550198686704e-16
  outer loop
    vertex -10.10000000000016 -4.999999999999968 -0.9999999999999785
    vertex -10.100000000000293 4.500000000000016 8.500000000000023
    vertex -10.100000000000113 -4.999999999999965 127.00000000000006
  endloop
endfacet
facet normal 1.0 5.287437154777308e-16 -8.922550198686704e-16
  outer loop
    vertex -10.100000000000293 4.500000000000016 8.500000000000023
    vertex -10.10000000000016 -4.999999999999968 -0.9999999999999785
    vertex -10.100000000000298 131.0 -0.9999999999999798
  endloop
endfacet
facet normal 1.0 5.287437154777308e-16 -8.922550198686704e-16
  outer loop
    vertex -10.100000000000293 4.500000000000016 8.500000000000023
    vertex -10.100000000000298 131.0 -0.9999999999999798
    vertex -10.100000000000477 121.50000000000003 8.500000000000016
  endloop
endfacet
facet normal 1.0 5.287437154777308e-16 -8.922550198686704e-16
  outer loop
    vertex -10.100000000000477 121.50000000000003 8.500000000000016
    vertex -10.100000000000298 131.0 -0.9999999999999798
    vertex -10.100000000000207 121.50000000000003 117.50000000000006
  endloop
endfacet
facet normal 1.0 5.287437154777308e-16 -8.922550198686704e-16
  outer loop
    vertex -10.100000000000113 -4.999999999999965 127.00000000000006
    vertex -10.100000000000293 4.500000000000016 117.50000000000003
    vertex -10.100000000000117 131.0 127.00000000000006
  endloop
endfacet
facet normal 1.0 5.287437154777308e-16 -8.922550198686704e-16
  outer loop
    vertex -10.100000000000293 4.500000000000016 117.50000000000003
    vertex -10.100000000000113 -4.999999999999965 127.00000000000006
    vertex -10.100000000000293 4.500000000000016 8.500000000000023
  endloop
endfacet
facet normal 1.0 5.287437154777308e-16 -8.922550198686704e-16
  outer loop
    vertex -10.100000000000117 131.0 127.00000000000006
    vertex -10.100000000000293 4.500000000000016 117.50000000000003
    vertex -10.100000000000207 121.50000000000003 117.50000000000006
  endloop
endfacet
facet normal 1.0 5.287437154777308e-16 -8.922550198686704e-16
  outer loop
    vertex -10.100000000000117 131.0 127.00000000000006
    vertex -10.100000000000207 121.50000000000003 117.50000000000006
    vertex -10.100000000000298 131.0 -0.9999999999999798
  endloop
endfacet
facet normal 0.2425356250363185 3.5359625926623477e-16 -0.9701425001453357
  outer loop
    vertex -10.100000000000298 131.0 -0.9999999999999798
    vertex -12.1000000000002 -5.49999999999997 -1.4999999999999734
    vertex -12.100000000000476 131.49999999999997 -1.499999999999976
  endloop
endfacet
facet normal 0.2425356250363185 3.5359625926623477e-16 -0.9701425001453357
  outer loop
    vertex -12.1000000000002 -5.49999999999997 -1.4999999999999734
    vertex -10.100000000000298 131.0 -0.9999999999999798
    vertex -10.10000000000016 -4.999999999999968 -0.9999999999999785
  endloop
endfacet
facet normal 0.242535625036322 -0.9701425001453347 5.0893386442946595e-17
  outer loop
    vertex -10.10000000000016 -4.999999999999968 -0.9999999999999785
    vertex -12.10000000000029 -5.49999999999997 127.50000000000006
    vertex -12.1000000000002 -5.49999999999997 -1.4999999999999734
  endloop
endfacet
facet normal 0.242535625036322 -0.9701425001453347 5.0893386442946595e-17
  outer loop
    vertex -12.10000000000029 -5.49999999999997 127.50000000000006
    vertex -10.10000000000016 -4.999999999999968 -0.9999999999999785
    vertex -10.100000000000113 -4.999999999999965 127.00000000000006
  endloop
endfacet
facet normal 0.2425356250363098 4.766673369805053e-17 0.9701425001453378
  outer loop
    vertex -12.10000000000029 -5.49999999999997 127.50000000000006
    vertex -10.100000000000117 131.0 127.00000000000006
    vertex -12.100000000000339 131.49999999999997 127.50000000000006
  endloop
endfacet
facet normal 0.2425356250363098 4.766673369805053e-17 0.9701425001453378
  outer loop
    vertex -10.100000000000117 131.0 127.00000000000006
    vertex -12.10000000000029 -5.49999999999997 127.50000000000006
    vertex -10.100000000000113 -4.999999999999965 127.00000000000006
  endloop
endfacet
facet normal 0.24253562503629952 0.9701425001453402 -3.0062605015132806e-16
  outer loop
    vertex -12.100000000000339 131.49999999999997 127.50000000000006
    vertex -10.100000000000298 131.0 -0.9999999999999798
    vertex -12.100000000000476 131.49999999999997 -1.499999999999976
  endloop
endfacet
facet normal 0.24253562503629952 0.9701425001453402 -3.0062605015132806e-16
  outer loop
    vertex -10.100000000000298 131.0 -0.9999999999999798
    vertex -12.100000000000339 131.49999999999997 127.50000000000006
    vertex -10.100000000000117 131.0 127.00000000000006
  endloop
endfacet
facet normal -1.0 -1.1835625747920012e-15 1.858117449740862e-16
  outer loop
    vertex -12.10000000000029 -5.49999999999997 127.50000000000006
    vertex -12.10000000000029 4.500000000000016 117.50000000000003
    vertex -12.1000000000002 -5.49999999999997 -1.4999999999999734
  endloop
endfacet
facet normal -1.0 -1.1835625747920012e-15 1.858117449740862e-16
  outer loop
    vertex -12.10000000000029 4.500000000000016 117.50000000000003
    vertex -12.10000000000029 -5.49999999999997 127.50000000000006
    vertex -12.100000000000339 131.49999999999997 127.50000000000006
  endloop
endfacet
facet normal -1.0 -1.1835625747920012e-15 1.858117449740862e-16
  outer loop
    vertex -12.10000000000029 4.500000000000016 117.50000000000003
    vertex -12.100000000000339 131.49999999999997 127.50000000000006
    vertex -12.100000000000204 121.50000000000003 117.50000000000006
  endloop
endfacet
facet normal -1.0 -1.1835625747920012e-15 1.858117449740862e-16
  outer loop
    vertex -12.100000000000204 121.50000000000003 117.50000000000006
    vertex -12.100000000000339 131.49999999999997 127.50000000000006
    vertex -12.100000000000474 121.50000000000003 8.50000000000002
  endloop
endfacet
facet normal -1.0 -1.1835625747920012e-15 1.858117449740862e-16
  outer loop
    vertex -12.1000000000002 -5.49999999999997 -1.4999999999999734
    vertex -12.10000000000029 4.500000000000016 8.500000000000028
    vertex -12.100000000000476 131.49999999999997 -1.499999999999976
  endloop
endfacet
facet normal -1.0 -1.1835625747920012e-15 1.858117449740862e-16
  outer loop
    vertex -12.10000000000029 4.500000000000016 8.500000000000028
    vertex -12.1000000000002 -5.49999999999997 -1.4999999999999734
    vertex -12.10000000000029 4.500000000000016 117.50000000000003
  endloop
endfacet
facet normal -1.0 -1.1835625747920012e-15 1.858117449740862e-16
  outer loop
    vertex -12.100000000000476 131.49999999999997 -1.499999999999976
    vertex -12.10000000000029 4.500000000000016 8.500000000000028
    vertex -12.100000000000474 121.50000000000003 8.50000000000002
  endloop
endfacet
facet normal -1.0 -1.1835625747920012e-15 1.858117449740862e-16
  outer loop
    vertex -12.100000000000476 131.49999999999997 -1.499999999999976
    vertex -12.100000000000474 121.50000000000003 8.50000000000002
    vertex -12.100000000000339 131.49999999999997 127.50000000000006
  endloop
endfacet
facet normal 0.0 1.0 0.0
  outer loop
    vertex -12.10000000000029 4.500000000000016 8.500000000000028
    vertex -10.100000000000293 4.500000000000016 117.50000000000003
    vertex -10.100000000000293 4.500000000000016 8.500000000000023
  endloop
endfacet
facet normal 0.0 1.0 0.0
  outer loop
    vertex -10.100000000000293 4.500000000000016 117.50000000000003
    vertex -12.10000000000029 4.500000000000016 8.500000000000028
    vertex -12.10000000000029 4.500000000000016 117.50000000000003
  endloop
endfacet
facet normal 2.114974861910927e-15 5.4230124664385646e-17 1.0
  outer loop
    vertex -12.10000000000029 4.500000000000016 8.500000000000028
    vertex -10.100000000000477 121.50000000000003 8.500000000000016
    vertex -12.100000000000474 121.50000000000003 8.50000000000002
  endloop
endfacet
facet normal 2.114974861910927e-15 5.4230124664385646e-17 1.0
  outer loop
    vertex -10.100000000000477 121.50000000000003 8.500000000000016
    vertex -12.10000000000029 4.500000000000016 8.500000000000028
    vertex -10.100000000000293 4.500000000000016 8.500000000000023
  endloop
endfacet
facet normal 0.0 -1.0 0.0
  outer loop
    vertex -10.100000000000207 121.50000000000003 117.50000000000006
    vertex -12.100000000000474 121.50000000000003 8.50000000000002
    vertex -10.100000000000477 121.50000000000003 8.500000000000016
  endloop
endfacet
facet normal 0.0 -1.0 0.0
  outer loop
    vertex -12.100000000000474 121.50000000000003 8.50000000000002
    vertex -10.100000000000207 121.50000000000003 117.50000000000006
    vertex -12.100000000000204 121.50000000000003 117.50000000000006
  endloop
endfacet
facet normal -4.587814016937859e-31 1.7353639892602444e-16 -1.0
  outer loop
    vertex -12.100000000000204 121.50000000000003 117.50000000000006
    vertex -10.100000000000293 4.500000000000016 117.50000000000003
    vertex -12.10000000000029 4.500000000000016 117.50000000000003
  endloop
endfacet
facet normal -4.587814016937859e-31 1.7353639892602444e-16 -1.0
  outer loop
    vertex -10.100000000000293 4.500000000000016 117.50000000000003
    vertex -12.100000000000204 121.50000000000003 117.50000000000006
    vertex -10.100000000000207 121.50000000000003 117.50000000000006
  endloop
endfacet
endsolid Soldering fan 04
